<svg xmlns="http://www.w3.org/2000/svg" width="106" height="21" viewBox="0 0 106 22" fill="none">
  <path d="M2.5 10.5263C1.8 10.5263 1.20833 10.2974 0.725 9.8395C0.241667 9.3816 0 8.82108 0 8.15792C0 7.49476 0.241667 6.93423 0.725 6.47634C1.20833 6.01844 1.8 5.7895 2.5 5.7895C3.2 5.7895 3.79167 6.01844 4.275 6.47634C4.75833 6.93423 5 7.49476 5 8.15792C5 8.82108 4.75833 9.3816 4.275 9.8395C3.79167 10.2974 3.2 10.5263 2.5 10.5263ZM7 6.73687C6.3 6.73687 5.70833 6.50792 5.225 6.05002C4.74167 5.59213 4.5 5.0316 4.5 4.36844C4.5 3.70529 4.74167 3.14476 5.225 2.68686C5.70833 2.22897 6.3 2.00002 7 2.00002C7.7 2.00002 8.29167 2.22897 8.775 2.68686C9.25833 3.14476 9.5 3.70529 9.5 4.36844C9.5 5.0316 9.25833 5.59213 8.775 6.05002C8.29167 6.50792 7.7 6.73687 7 6.73687ZM13 6.73687C12.3 6.73687 11.7083 6.50792 11.225 6.05002C10.7417 5.59213 10.5 5.0316 10.5 4.36844C10.5 3.70529 10.7417 3.14476 11.225 2.68686C11.7083 2.22897 12.3 2.00002 13 2.00002C13.7 2.00002 14.2917 2.22897 14.775 2.68686C15.2583 3.14476 15.5 3.70529 15.5 4.36844C15.5 5.0316 15.2583 5.59213 14.775 6.05002C14.2917 6.50792 13.7 6.73687 13 6.73687ZM17.5 10.5263C16.8 10.5263 16.2083 10.2974 15.725 9.8395C15.2417 9.3816 15 8.82108 15 8.15792C15 7.49476 15.2417 6.93423 15.725 6.47634C16.2083 6.01844 16.8 5.7895 17.5 5.7895C18.2 5.7895 18.7917 6.01844 19.275 6.47634C19.7583 6.93423 20 7.49476 20 8.15792C20 8.82108 19.7583 9.3816 19.275 9.8395C18.7917 10.2974 18.2 10.5263 17.5 10.5263ZM4.65 20C3.9 20 3.27083 19.7277 2.7625 19.1829C2.25417 18.6382 2 17.9948 2 17.2527C2 16.4316 2.29583 15.7132 2.8875 15.0974C3.47917 14.4816 4.06667 13.8737 4.65 13.2737C5.13333 12.7842 5.55 12.2513 5.9 11.675C6.25 11.0987 6.66667 10.5579 7.15 10.0527C7.51667 9.64213 7.94167 9.30265 8.425 9.03423C8.90833 8.76581 9.43333 8.6316 10 8.6316C10.5667 8.6316 11.0917 8.75792 11.575 9.01055C12.0583 9.26318 12.4833 9.59476 12.85 10.0053C13.3167 10.5105 13.7292 11.0553 14.0875 11.6395C14.4458 12.2237 14.8667 12.7684 15.35 13.2737C15.9333 13.8737 16.5208 14.4816 17.1125 15.0974C17.7042 15.7132 18 16.4316 18 17.2527C18 17.9948 17.7458 18.6382 17.2375 19.1829C16.7292 19.7277 16.1 20 15.35 20C14.45 20 13.5583 19.929 12.675 19.7869C11.7917 19.6448 10.9 19.5737 10 19.5737C9.1 19.5737 8.20833 19.6448 7.325 19.7869C6.44167 19.929 5.55 20 4.65 20Z" fill="#69B000"/>
  <path d="M29.008 9.09602C28.816 9.09602 28.66 9.05202 28.54 8.96402C28.428 8.87602 28.36 8.76002 28.336 8.61602C28.312 8.46402 28.34 8.29602 28.42 8.11202L31.588 1.09202C31.692 0.860022 31.816 0.696022 31.96 0.600022C32.112 0.496022 32.284 0.444022 32.476 0.444022C32.66 0.444022 32.824 0.496022 32.968 0.600022C33.12 0.696022 33.248 0.860022 33.352 1.09202L36.532 8.11202C36.62 8.29602 36.652 8.46402 36.628 8.61602C36.604 8.76802 36.536 8.88802 36.424 8.97602C36.312 9.05602 36.164 9.09602 35.98 9.09602C35.756 9.09602 35.58 9.04402 35.452 8.94002C35.332 8.82802 35.224 8.66002 35.128 8.43602L34.348 6.62402L34.996 7.04402H29.932L30.58 6.62402L29.812 8.43602C29.708 8.66802 29.6 8.83602 29.488 8.94002C29.376 9.04402 29.216 9.09602 29.008 9.09602ZM32.452 2.20802L30.772 6.20402L30.46 5.82002H34.468L34.168 6.20402L32.476 2.20802H32.452Z" fill="#69B000"/>
  <path d="M40.4937 9.12002C39.9977 9.12002 39.5617 8.99602 39.1857 8.74802C38.8177 8.50002 38.5737 8.16802 38.4537 7.75202L38.5857 7.45202V8.32802C38.5857 8.57602 38.5217 8.76802 38.3937 8.90402C38.2657 9.03202 38.0857 9.09602 37.8537 9.09602C37.6137 9.09602 37.4297 9.03202 37.3017 8.90402C37.1737 8.76802 37.1097 8.57602 37.1097 8.32802V1.20002C37.1097 0.952022 37.1737 0.764022 37.3017 0.636022C37.4297 0.508022 37.6137 0.444022 37.8537 0.444022C38.0937 0.444022 38.2777 0.508022 38.4057 0.636022C38.5417 0.764022 38.6097 0.952022 38.6097 1.20002V4.32002H38.4657C38.5937 3.92802 38.8417 3.61202 39.2097 3.37202C39.5777 3.13202 40.0057 3.01202 40.4937 3.01202C41.0137 3.01202 41.4657 3.13602 41.8497 3.38402C42.2337 3.63202 42.5337 3.98402 42.7497 4.44002C42.9657 4.88802 43.0737 5.42802 43.0737 6.06002C43.0737 6.68402 42.9657 7.22802 42.7497 7.69202C42.5337 8.14802 42.2297 8.50002 41.8377 8.74802C41.4537 8.99602 41.0057 9.12002 40.4937 9.12002ZM40.0737 7.98002C40.3697 7.98002 40.6297 7.90802 40.8537 7.76402C41.0777 7.62002 41.2497 7.40802 41.3697 7.12802C41.4977 6.84002 41.5617 6.48402 41.5617 6.06002C41.5617 5.42002 41.4257 4.94402 41.1537 4.63202C40.8817 4.31202 40.5217 4.15202 40.0737 4.15202C39.7777 4.15202 39.5177 4.22402 39.2937 4.36802C39.0697 4.50402 38.8937 4.71602 38.7657 5.00402C38.6457 5.28402 38.5857 5.63602 38.5857 6.06002C38.5857 6.69202 38.7217 7.17202 38.9937 7.50002C39.2657 7.82002 39.6257 7.98002 40.0737 7.98002Z" fill="#69B000"/>
  <path d="M45.0758 11.256C44.8998 11.256 44.7558 11.208 44.6438 11.112C44.5318 11.024 44.4638 10.904 44.4398 10.752C44.4238 10.6 44.4518 10.44 44.5238 10.272L45.3398 8.46002V9.08402L43.1558 4.03202C43.0838 3.85602 43.0598 3.69202 43.0838 3.54002C43.1078 3.38802 43.1798 3.26802 43.2998 3.18002C43.4278 3.08402 43.5998 3.03602 43.8158 3.03602C43.9998 3.03602 44.1478 3.08002 44.2598 3.16802C44.3718 3.24802 44.4718 3.40402 44.5598 3.63602L46.1798 7.68002H45.8198L47.4758 3.62402C47.5638 3.40002 47.6678 3.24802 47.7878 3.16802C47.9078 3.08002 48.0678 3.03602 48.2678 3.03602C48.4438 3.03602 48.5838 3.08402 48.6878 3.18002C48.7918 3.26802 48.8558 3.38802 48.8798 3.54002C48.9038 3.68402 48.8758 3.84402 48.7958 4.02002L45.8798 10.68C45.7758 10.904 45.6638 11.056 45.5438 11.136C45.4238 11.216 45.2678 11.256 45.0758 11.256Z" fill="#69B000"/>
  <path d="M51.335 9.12002C50.991 9.12002 50.627 9.08402 50.243 9.01202C49.859 8.94002 49.515 8.81602 49.211 8.64002C49.083 8.56002 48.991 8.46802 48.935 8.36402C48.887 8.25202 48.867 8.14402 48.875 8.04002C48.891 7.92802 48.931 7.83202 48.995 7.75202C49.067 7.67202 49.155 7.62002 49.259 7.59602C49.371 7.57202 49.491 7.59202 49.619 7.65602C49.939 7.80802 50.239 7.91602 50.519 7.98002C50.799 8.03602 51.075 8.06402 51.347 8.06402C51.731 8.06402 52.015 8.00002 52.199 7.87202C52.391 7.73602 52.487 7.56002 52.487 7.34402C52.487 7.16002 52.423 7.02002 52.295 6.92402C52.175 6.82002 51.991 6.74402 51.743 6.69602L50.543 6.46802C50.047 6.37202 49.667 6.19202 49.403 5.92802C49.147 5.65602 49.019 5.30802 49.019 4.88402C49.019 4.50002 49.123 4.16802 49.331 3.88802C49.547 3.60802 49.843 3.39202 50.219 3.24002C50.595 3.08802 51.027 3.01202 51.515 3.01202C51.867 3.01202 52.195 3.05202 52.499 3.13202C52.811 3.20402 53.111 3.32002 53.399 3.48002C53.519 3.54402 53.599 3.62802 53.639 3.73202C53.687 3.83602 53.699 3.94402 53.675 4.05602C53.651 4.16002 53.603 4.25602 53.531 4.34402C53.459 4.42402 53.367 4.47602 53.255 4.50002C53.151 4.51602 53.031 4.49202 52.895 4.42802C52.647 4.30002 52.407 4.20802 52.175 4.15202C51.951 4.09602 51.735 4.06802 51.527 4.06802C51.135 4.06802 50.843 4.13602 50.651 4.27202C50.467 4.40802 50.375 4.58802 50.375 4.81202C50.375 4.98002 50.431 5.12002 50.543 5.23202C50.655 5.34402 50.827 5.42002 51.059 5.46002L52.259 5.68802C52.779 5.78402 53.171 5.96002 53.435 6.21602C53.707 6.47202 53.843 6.81602 53.843 7.24802C53.843 7.83202 53.615 8.29202 53.159 8.62802C52.703 8.95602 52.095 9.12002 51.335 9.12002Z" fill="#69B000"/>
  <path d="M57.3322 9.09602C57.1402 9.09602 56.9842 9.05202 56.8642 8.96402C56.7522 8.87602 56.6842 8.76002 56.6602 8.61602C56.6362 8.46402 56.6642 8.29602 56.7442 8.11202L59.9122 1.09202C60.0162 0.860022 60.1402 0.696022 60.2842 0.600022C60.4362 0.496022 60.6082 0.444022 60.8002 0.444022C60.9842 0.444022 61.1482 0.496022 61.2922 0.600022C61.4442 0.696022 61.5722 0.860022 61.6762 1.09202L64.8562 8.11202C64.9442 8.29602 64.9762 8.46402 64.9522 8.61602C64.9282 8.76802 64.8602 8.88802 64.7482 8.97602C64.6362 9.05602 64.4882 9.09602 64.3042 9.09602C64.0802 9.09602 63.9042 9.04402 63.7762 8.94002C63.6562 8.82802 63.5482 8.66002 63.4522 8.43602L62.6722 6.62402L63.3202 7.04402H58.2562L58.9042 6.62402L58.1362 8.43602C58.0322 8.66802 57.9242 8.83602 57.8122 8.94002C57.7002 9.04402 57.5402 9.09602 57.3322 9.09602ZM60.7762 2.20802L59.0962 6.20402L58.7842 5.82002H62.7922L62.4922 6.20402L60.8002 2.20802H60.7762Z" fill="#69B000"/>
  <path d="M68.1113 11.28C67.6793 11.28 67.2593 11.24 66.8513 11.16C66.4513 11.08 66.0873 10.956 65.7593 10.788C65.6073 10.708 65.5033 10.612 65.4473 10.5C65.3993 10.388 65.3833 10.272 65.3993 10.152C65.4233 10.04 65.4713 9.94002 65.5433 9.85202C65.6233 9.76402 65.7193 9.70402 65.8313 9.67202C65.9433 9.64002 66.0593 9.65602 66.1793 9.72002C66.5313 9.89602 66.8633 10.008 67.1753 10.056C67.4953 10.112 67.7673 10.14 67.9913 10.14C68.5273 10.14 68.9273 10.008 69.1913 9.74402C69.4633 9.48802 69.5993 9.10402 69.5993 8.59202V7.51202H69.7073C69.5873 7.92002 69.3353 8.24802 68.9513 8.49602C68.5753 8.73602 68.1473 8.85602 67.6673 8.85602C67.1393 8.85602 66.6793 8.73602 66.2873 8.49602C65.8953 8.24802 65.5913 7.90402 65.3753 7.46402C65.1593 7.02402 65.0513 6.51202 65.0513 5.92802C65.0513 5.48802 65.1113 5.09202 65.2313 4.74002C65.3593 4.38002 65.5353 4.07202 65.7593 3.81602C65.9913 3.56002 66.2673 3.36402 66.5873 3.22802C66.9153 3.08402 67.2753 3.01202 67.6673 3.01202C68.1633 3.01202 68.5953 3.13602 68.9633 3.38402C69.3393 3.62402 69.5833 3.94402 69.6953 4.34402L69.5753 4.64402V3.79202C69.5753 3.54402 69.6393 3.35602 69.7673 3.22802C69.9033 3.10002 70.0873 3.03602 70.3193 3.03602C70.5593 3.03602 70.7433 3.10002 70.8713 3.22802C70.9993 3.35602 71.0633 3.54402 71.0633 3.79202V8.41202C71.0633 9.36402 70.8113 10.08 70.3073 10.56C69.8033 11.04 69.0713 11.28 68.1113 11.28ZM68.0753 7.71602C68.3873 7.71602 68.6553 7.64402 68.8793 7.50002C69.1033 7.35602 69.2753 7.15202 69.3953 6.88802C69.5233 6.61602 69.5873 6.29602 69.5873 5.92802C69.5873 5.37602 69.4513 4.94402 69.1793 4.63202C68.9073 4.31202 68.5393 4.15202 68.0753 4.15202C67.7633 4.15202 67.4953 4.22402 67.2713 4.36802C67.0473 4.51202 66.8713 4.71602 66.7433 4.98002C66.6233 5.24402 66.5633 5.56002 66.5633 5.92802C66.5633 6.48002 66.6993 6.91602 66.9713 7.23602C67.2433 7.55602 67.6113 7.71602 68.0753 7.71602Z" fill="#69B000"/>
  <path d="M72.7855 9.09602C72.5375 9.09602 72.3455 9.03202 72.2095 8.90402C72.0815 8.76802 72.0175 8.57602 72.0175 8.32802V3.79202C72.0175 3.54402 72.0815 3.35602 72.2095 3.22802C72.3375 3.10002 72.5175 3.03602 72.7495 3.03602C72.9815 3.03602 73.1615 3.10002 73.2895 3.22802C73.4175 3.35602 73.4815 3.54402 73.4815 3.79202V4.54802H73.3615C73.4735 4.06802 73.6935 3.70402 74.0215 3.45602C74.3495 3.20802 74.7855 3.06002 75.3295 3.01202C75.4975 2.99602 75.6295 3.04002 75.7255 3.14402C75.8295 3.24002 75.8895 3.39202 75.9055 3.60002C75.9215 3.80002 75.8735 3.96402 75.7615 4.09202C75.6575 4.21202 75.4975 4.28402 75.2815 4.30802L75.0175 4.33202C74.5295 4.38002 74.1615 4.53202 73.9135 4.78802C73.6655 5.03602 73.5415 5.38802 73.5415 5.84402V8.32802C73.5415 8.57602 73.4775 8.76802 73.3495 8.90402C73.2215 9.03202 73.0335 9.09602 72.7855 9.09602Z" fill="#69B000"/>
  <path d="M76.8607 9.08402C76.6207 9.08402 76.4367 9.01202 76.3087 8.86802C76.1807 8.72402 76.1167 8.52402 76.1167 8.26802V3.86402C76.1167 3.60002 76.1807 3.40002 76.3087 3.26402C76.4367 3.12002 76.6207 3.04802 76.8607 3.04802C77.1007 3.04802 77.2847 3.12002 77.4127 3.26402C77.5487 3.40002 77.6167 3.60002 77.6167 3.86402V8.26802C77.6167 8.52402 77.5527 8.72402 77.4247 8.86802C77.2967 9.01202 77.1087 9.08402 76.8607 9.08402ZM76.8607 1.93202C76.5807 1.93202 76.3607 1.86402 76.2007 1.72802C76.0487 1.58402 75.9727 1.38802 75.9727 1.14002C75.9727 0.884022 76.0487 0.688022 76.2007 0.552022C76.3607 0.416022 76.5807 0.348022 76.8607 0.348022C77.1487 0.348022 77.3687 0.416022 77.5207 0.552022C77.6727 0.688022 77.7487 0.884022 77.7487 1.14002C77.7487 1.38802 77.6727 1.58402 77.5207 1.72802C77.3687 1.86402 77.1487 1.93202 76.8607 1.93202Z" fill="#69B000"/>
  <path d="M80.9513 9.09602C80.7513 9.09602 80.5753 9.04402 80.4233 8.94002C80.2793 8.83602 80.1593 8.67602 80.0633 8.46002L78.1553 4.03202C78.0833 3.85602 78.0553 3.69202 78.0713 3.54002C78.0953 3.38802 78.1673 3.26802 78.2873 3.18002C78.4153 3.08402 78.5873 3.03602 78.8033 3.03602C78.9873 3.03602 79.1353 3.08002 79.2473 3.16802C79.3593 3.24802 79.4593 3.40402 79.5473 3.63602L81.1673 7.68002H80.8073L82.4753 3.62402C82.5633 3.40002 82.6633 3.24802 82.7753 3.16802C82.8953 3.08002 83.0553 3.03602 83.2553 3.03602C83.4313 3.03602 83.5713 3.08402 83.6753 3.18002C83.7793 3.26802 83.8433 3.38802 83.8673 3.54002C83.8913 3.68402 83.8633 3.84402 83.7833 4.02002L81.8393 8.46002C81.7513 8.67602 81.6313 8.83602 81.4793 8.94002C81.3353 9.04402 81.1593 9.09602 80.9513 9.09602Z" fill="#69B000"/>
  <path d="M87.0782 9.12002C86.4142 9.12002 85.8423 8.99602 85.3623 8.74802C84.8823 8.50002 84.5102 8.14802 84.2462 7.69202C83.9902 7.23602 83.8623 6.69602 83.8623 6.07202C83.8623 5.46402 83.9863 4.93202 84.2343 4.47602C84.4903 4.02002 84.8383 3.66402 85.2783 3.40802C85.7263 3.14402 86.2343 3.01202 86.8023 3.01202C87.2183 3.01202 87.5903 3.08002 87.9183 3.21602C88.2543 3.35202 88.5382 3.54802 88.7702 3.80402C89.0102 4.06002 89.1902 4.37202 89.3102 4.74002C89.4382 5.10002 89.5023 5.50802 89.5023 5.96402C89.5023 6.10802 89.4503 6.22002 89.3463 6.30002C89.2503 6.37202 89.1102 6.40802 88.9262 6.40802H85.0742V5.54402H88.4463L88.2542 5.72402C88.2542 5.35602 88.1983 5.04802 88.0863 4.80002C87.9823 4.55202 87.8262 4.36402 87.6182 4.23602C87.4182 4.10002 87.1663 4.03202 86.8623 4.03202C86.5263 4.03202 86.2383 4.11202 85.9983 4.27202C85.7663 4.42402 85.5863 4.64402 85.4583 4.93202C85.3383 5.21202 85.2783 5.54802 85.2783 5.94002V6.02402C85.2783 6.68002 85.4303 7.17202 85.7343 7.50002C86.0463 7.82002 86.5022 7.98002 87.1022 7.98002C87.3102 7.98002 87.5422 7.95602 87.7982 7.90802C88.0622 7.85202 88.3103 7.76002 88.5423 7.63202C88.7103 7.53602 88.8583 7.49602 88.9863 7.51202C89.1143 7.52002 89.2142 7.56402 89.2862 7.64402C89.3662 7.72402 89.4143 7.82402 89.4303 7.94402C89.4463 8.05602 89.4223 8.17202 89.3583 8.29202C89.3023 8.41202 89.2023 8.51602 89.0583 8.60402C88.7783 8.78002 88.4543 8.91202 88.0863 9.00002C87.7263 9.08002 87.3902 9.12002 87.0782 9.12002Z" fill="#69B000"/>
  <path d="M92.7547 9.12002C92.2347 9.12002 91.7987 9.03202 91.4467 8.85602C91.1027 8.68002 90.8467 8.42402 90.6787 8.08802C90.5107 7.74402 90.4267 7.32002 90.4267 6.81602V4.26002H89.8027C89.6107 4.26002 89.4627 4.21202 89.3587 4.11602C89.2547 4.01202 89.2027 3.87202 89.2027 3.69602C89.2027 3.51202 89.2547 3.37202 89.3587 3.27602C89.4627 3.18002 89.6107 3.13202 89.8027 3.13202H90.4267V2.04002C90.4267 1.79202 90.4907 1.60402 90.6187 1.47602C90.7547 1.34802 90.9427 1.28402 91.1827 1.28402C91.4227 1.28402 91.6067 1.34802 91.7347 1.47602C91.8627 1.60402 91.9267 1.79202 91.9267 2.04002V3.13202H93.1987C93.3907 3.13202 93.5387 3.18002 93.6427 3.27602C93.7467 3.37202 93.7987 3.51202 93.7987 3.69602C93.7987 3.87202 93.7467 4.01202 93.6427 4.11602C93.5387 4.21202 93.3907 4.26002 93.1987 4.26002H91.9267V6.73202C91.9267 7.11602 92.0107 7.40402 92.1787 7.59602C92.3467 7.78802 92.6187 7.88402 92.9947 7.88402C93.1307 7.88402 93.2507 7.87202 93.3547 7.84802C93.4587 7.82402 93.5507 7.80802 93.6307 7.80002C93.7267 7.79202 93.8067 7.82402 93.8707 7.89602C93.9347 7.96002 93.9667 8.09602 93.9667 8.30402C93.9667 8.46402 93.9387 8.60802 93.8827 8.73602C93.8347 8.85602 93.7427 8.94002 93.6067 8.98802C93.5027 9.02002 93.3667 9.04802 93.1987 9.07202C93.0307 9.10402 92.8827 9.12002 92.7547 9.12002Z" fill="#69B000"/>
  <path d="M31.612 21.12C31.012 21.12 30.492 21.024 30.052 20.832C29.612 20.64 29.272 20.376 29.032 20.04C28.8 19.696 28.684 19.296 28.684 18.84C28.684 18.568 28.72 18.316 28.792 18.084C28.872 17.844 28.984 17.624 29.128 17.424C29.28 17.216 29.46 17.024 29.668 16.848C29.884 16.664 30.128 16.492 30.4 16.332L30.808 16.092L30.592 16.416C30.24 16.064 29.984 15.732 29.824 15.42C29.672 15.1 29.596 14.772 29.596 14.436C29.596 14.036 29.692 13.684 29.884 13.38C30.076 13.076 30.348 12.84 30.7 12.672C31.052 12.504 31.464 12.42 31.936 12.42C32.592 12.42 33.112 12.588 33.496 12.924C33.88 13.252 34.072 13.7 34.072 14.268C34.072 14.572 34.012 14.86 33.892 15.132C33.772 15.404 33.58 15.664 33.316 15.912C33.052 16.16 32.7 16.404 32.26 16.644L32.272 16.284L34.312 18.456H33.988C34.092 18.28 34.184 18.088 34.264 17.88C34.344 17.664 34.412 17.436 34.468 17.196C34.532 16.948 34.58 16.692 34.612 16.428C34.644 16.228 34.712 16.08 34.816 15.984C34.92 15.88 35.068 15.828 35.26 15.828C35.468 15.828 35.624 15.888 35.728 16.008C35.832 16.12 35.872 16.284 35.848 16.5C35.808 16.876 35.74 17.236 35.644 17.58C35.556 17.916 35.444 18.232 35.308 18.528C35.172 18.816 35.02 19.084 34.852 19.332L34.84 18.96L35.98 20.112C36.132 20.264 36.208 20.416 36.208 20.568C36.208 20.72 36.148 20.848 36.028 20.952C35.916 21.048 35.76 21.096 35.56 21.096C35.384 21.096 35.24 21.064 35.128 21C35.016 20.928 34.892 20.824 34.756 20.688L34.012 19.908H34.36C34.008 20.284 33.592 20.58 33.112 20.796C32.64 21.012 32.14 21.12 31.612 21.12ZM31.696 19.932C32.08 19.932 32.42 19.86 32.716 19.716C33.02 19.564 33.296 19.34 33.544 19.044L33.508 19.428L31.036 16.872L31.66 16.932L31.312 17.136C31.04 17.296 30.82 17.456 30.652 17.616C30.484 17.768 30.36 17.936 30.28 18.12C30.208 18.296 30.172 18.496 30.172 18.72C30.172 19.096 30.304 19.392 30.568 19.608C30.832 19.824 31.208 19.932 31.696 19.932ZM31.936 13.488C31.648 13.488 31.416 13.572 31.24 13.74C31.064 13.9 30.976 14.12 30.976 14.4C30.976 14.552 31 14.696 31.048 14.832C31.096 14.96 31.18 15.104 31.3 15.264C31.42 15.416 31.584 15.604 31.792 15.828L31.456 15.804C31.792 15.612 32.056 15.44 32.248 15.288C32.448 15.136 32.592 14.984 32.68 14.832C32.768 14.68 32.812 14.512 32.812 14.328C32.812 14.056 32.732 13.848 32.572 13.704C32.412 13.56 32.2 13.488 31.936 13.488Z" fill="#69B000"/>
  <path d="M39.7728 21.096C39.5808 21.096 39.4248 21.052 39.3048 20.964C39.1928 20.876 39.1248 20.76 39.1008 20.616C39.0768 20.464 39.1048 20.296 39.1848 20.112L42.3528 13.092C42.4568 12.86 42.5808 12.696 42.7248 12.6C42.8768 12.496 43.0488 12.444 43.2408 12.444C43.4248 12.444 43.5888 12.496 43.7328 12.6C43.8848 12.696 44.0128 12.86 44.1168 13.092L47.2968 20.112C47.3848 20.296 47.4168 20.464 47.3928 20.616C47.3688 20.768 47.3008 20.888 47.1888 20.976C47.0768 21.056 46.9288 21.096 46.7448 21.096C46.5208 21.096 46.3448 21.044 46.2168 20.94C46.0968 20.828 45.9888 20.66 45.8928 20.436L45.1128 18.624L45.7608 19.044H40.6968L41.3448 18.624L40.5768 20.436C40.4728 20.668 40.3648 20.836 40.2528 20.94C40.1408 21.044 39.9808 21.096 39.7728 21.096ZM43.2168 14.208L41.5368 18.204L41.2248 17.82H45.2328L44.9328 18.204L43.2408 14.208H43.2168Z" fill="#69B000"/>
  <path d="M48.6185 21.096C48.3785 21.096 48.1945 21.032 48.0665 20.904C47.9385 20.768 47.8745 20.576 47.8745 20.328V15.792C47.8745 15.544 47.9385 15.356 48.0665 15.228C48.1945 15.1 48.3745 15.036 48.6065 15.036C48.8385 15.036 49.0185 15.1 49.1465 15.228C49.2745 15.356 49.3385 15.544 49.3385 15.792V16.608L49.2065 16.308C49.3825 15.884 49.6545 15.564 50.0225 15.348C50.3985 15.124 50.8225 15.012 51.2945 15.012C51.7665 15.012 52.1545 15.1 52.4585 15.276C52.7625 15.452 52.9905 15.72 53.1425 16.08C53.2945 16.432 53.3705 16.88 53.3705 17.424V20.328C53.3705 20.576 53.3065 20.768 53.1785 20.904C53.0505 21.032 52.8665 21.096 52.6265 21.096C52.3865 21.096 52.1985 21.032 52.0625 20.904C51.9345 20.768 51.8705 20.576 51.8705 20.328V17.496C51.8705 17.04 51.7825 16.708 51.6065 16.5C51.4385 16.292 51.1745 16.188 50.8145 16.188C50.3745 16.188 50.0225 16.328 49.7585 16.608C49.5025 16.88 49.3745 17.244 49.3745 17.7V20.328C49.3745 20.84 49.1225 21.096 48.6185 21.096Z" fill="#69B000"/>
  <path d="M55.0381 21.084C54.7981 21.084 54.6141 21.012 54.4861 20.868C54.3581 20.724 54.2941 20.524 54.2941 20.268V15.864C54.2941 15.6 54.3581 15.4 54.4861 15.264C54.6141 15.12 54.7981 15.048 55.0381 15.048C55.2781 15.048 55.4621 15.12 55.5901 15.264C55.7261 15.4 55.7941 15.6 55.7941 15.864V20.268C55.7941 20.524 55.7301 20.724 55.6021 20.868C55.4741 21.012 55.2861 21.084 55.0381 21.084ZM55.0381 13.932C54.7581 13.932 54.5381 13.864 54.3781 13.728C54.2261 13.584 54.1501 13.388 54.1501 13.14C54.1501 12.884 54.2261 12.688 54.3781 12.552C54.5381 12.416 54.7581 12.348 55.0381 12.348C55.3261 12.348 55.5461 12.416 55.6981 12.552C55.8501 12.688 55.9261 12.884 55.9261 13.14C55.9261 13.388 55.8501 13.584 55.6981 13.728C55.5461 13.864 55.3261 13.932 55.0381 13.932Z" fill="#69B000"/>
  <path d="M57.5207 21.096C57.2807 21.096 57.0967 21.032 56.9687 20.904C56.8407 20.768 56.7767 20.576 56.7767 20.328V15.792C56.7767 15.544 56.8407 15.356 56.9687 15.228C57.0967 15.1 57.2767 15.036 57.5087 15.036C57.7407 15.036 57.9207 15.1 58.0487 15.228C58.1767 15.356 58.2407 15.544 58.2407 15.792V16.668L58.1087 16.308C58.2687 15.908 58.5167 15.592 58.8527 15.36C59.1887 15.128 59.5887 15.012 60.0527 15.012C60.5247 15.012 60.9127 15.124 61.2167 15.348C61.5207 15.572 61.7327 15.916 61.8527 16.38H61.6847C61.8447 15.956 62.1087 15.624 62.4767 15.384C62.8447 15.136 63.2687 15.012 63.7487 15.012C64.1967 15.012 64.5647 15.1 64.8527 15.276C65.1487 15.452 65.3687 15.72 65.5127 16.08C65.6567 16.432 65.7287 16.88 65.7287 17.424V20.328C65.7287 20.576 65.6607 20.768 65.5247 20.904C65.3967 21.032 65.2127 21.096 64.9727 21.096C64.7327 21.096 64.5487 21.032 64.4207 20.904C64.2927 20.768 64.2287 20.576 64.2287 20.328V17.484C64.2287 17.036 64.1527 16.708 64.0007 16.5C63.8567 16.292 63.6087 16.188 63.2567 16.188C62.8647 16.188 62.5567 16.328 62.3327 16.608C62.1087 16.88 61.9967 17.26 61.9967 17.748V20.328C61.9967 20.576 61.9327 20.768 61.8047 20.904C61.6767 21.032 61.4927 21.096 61.2527 21.096C61.0127 21.096 60.8247 21.032 60.6887 20.904C60.5607 20.768 60.4967 20.576 60.4967 20.328V17.484C60.4967 17.036 60.4207 16.708 60.2687 16.5C60.1247 16.292 59.8807 16.188 59.5367 16.188C59.1447 16.188 58.8367 16.328 58.6127 16.608C58.3887 16.88 58.2767 17.26 58.2767 17.748V20.328C58.2767 20.84 58.0247 21.096 57.5207 21.096Z" fill="#69B000"/>
  <path d="M68.6081 21.12C68.1841 21.12 67.8041 21.04 67.4681 20.88C67.1401 20.712 66.8801 20.488 66.6881 20.208C66.5041 19.928 66.4121 19.612 66.4121 19.26C66.4121 18.828 66.5241 18.488 66.7481 18.24C66.9721 17.984 67.3361 17.8 67.8401 17.688C68.3441 17.576 69.0201 17.52 69.8681 17.52H70.4681V18.384H69.8801C69.3841 18.384 68.9881 18.408 68.6921 18.456C68.3961 18.504 68.1841 18.588 68.0561 18.708C67.9361 18.82 67.8761 18.98 67.8761 19.188C67.8761 19.452 67.9681 19.668 68.1521 19.836C68.3361 20.004 68.5921 20.088 68.9201 20.088C69.1841 20.088 69.4161 20.028 69.6161 19.908C69.8241 19.78 69.9881 19.608 70.1081 19.392C70.2281 19.176 70.2881 18.928 70.2881 18.648V17.268C70.2881 16.868 70.2001 16.58 70.0241 16.404C69.8481 16.228 69.5521 16.14 69.1361 16.14C68.9041 16.14 68.6521 16.168 68.3801 16.224C68.1161 16.28 67.8361 16.376 67.5401 16.512C67.3881 16.584 67.2521 16.604 67.1321 16.572C67.0201 16.54 66.9321 16.476 66.8681 16.38C66.8041 16.276 66.7721 16.164 66.7721 16.044C66.7721 15.924 66.8041 15.808 66.8681 15.696C66.9321 15.576 67.0401 15.488 67.1921 15.432C67.5601 15.28 67.9121 15.172 68.2481 15.108C68.5921 15.044 68.9041 15.012 69.1841 15.012C69.7601 15.012 70.2321 15.1 70.6001 15.276C70.9761 15.452 71.2561 15.72 71.4401 16.08C71.6241 16.432 71.7161 16.888 71.7161 17.448V20.328C71.7161 20.576 71.6561 20.768 71.5361 20.904C71.4161 21.032 71.2441 21.096 71.0201 21.096C70.7961 21.096 70.6201 21.032 70.4921 20.904C70.3721 20.768 70.3121 20.576 70.3121 20.328V19.752H70.4081C70.3521 20.032 70.2401 20.276 70.0721 20.484C69.9121 20.684 69.7081 20.84 69.4601 20.952C69.2121 21.064 68.9281 21.12 68.6081 21.12Z" fill="#69B000"/>
  <path d="M74.6426 21.12C73.9786 21.12 73.4786 20.932 73.1426 20.556C72.8066 20.172 72.6386 19.612 72.6386 18.876V13.2C72.6386 12.952 72.7026 12.764 72.8306 12.636C72.9586 12.508 73.1426 12.444 73.3826 12.444C73.6226 12.444 73.8066 12.508 73.9346 12.636C74.0706 12.764 74.1386 12.952 74.1386 13.2V18.804C74.1386 19.172 74.2146 19.444 74.3666 19.62C74.5266 19.796 74.7506 19.884 75.0386 19.884C75.1026 19.884 75.1626 19.884 75.2186 19.884C75.2746 19.876 75.3306 19.868 75.3866 19.86C75.4986 19.844 75.5746 19.876 75.6146 19.956C75.6546 20.028 75.6746 20.18 75.6746 20.412C75.6746 20.612 75.6346 20.768 75.5546 20.88C75.4746 20.992 75.3426 21.06 75.1586 21.084C75.0786 21.092 74.9946 21.1 74.9066 21.108C74.8186 21.116 74.7306 21.12 74.6426 21.12Z" fill="#69B000"/>
  <path d="M82.6084 21.12C81.7284 21.12 80.9724 20.944 80.3404 20.592C79.7164 20.232 79.2364 19.728 78.9004 19.08C78.5644 18.424 78.3964 17.652 78.3964 16.764C78.3964 16.1 78.4924 15.504 78.6844 14.976C78.8764 14.44 79.1524 13.984 79.5124 13.608C79.8724 13.224 80.3124 12.932 80.8324 12.732C81.3604 12.524 81.9524 12.42 82.6084 12.42C83.0484 12.42 83.4804 12.476 83.9044 12.588C84.3284 12.7 84.7004 12.86 85.0204 13.068C85.1884 13.172 85.3004 13.3 85.3564 13.452C85.4124 13.596 85.4244 13.74 85.3924 13.884C85.3604 14.02 85.2924 14.136 85.1884 14.232C85.0924 14.328 84.9684 14.384 84.8164 14.4C84.6724 14.408 84.5124 14.356 84.3364 14.244C84.0884 14.084 83.8204 13.968 83.5324 13.896C83.2444 13.824 82.9524 13.788 82.6564 13.788C82.0884 13.788 81.6084 13.904 81.2164 14.136C80.8244 14.368 80.5284 14.704 80.3284 15.144C80.1284 15.584 80.0284 16.124 80.0284 16.764C80.0284 17.396 80.1284 17.936 80.3284 18.384C80.5284 18.832 80.8244 19.172 81.2164 19.404C81.6084 19.636 82.0884 19.752 82.6564 19.752C82.9604 19.752 83.2604 19.716 83.5564 19.644C83.8524 19.564 84.1324 19.444 84.3964 19.284C84.5724 19.18 84.7284 19.136 84.8644 19.152C85.0084 19.16 85.1284 19.208 85.2244 19.296C85.3204 19.384 85.3844 19.496 85.4164 19.632C85.4484 19.76 85.4404 19.896 85.3924 20.04C85.3444 20.176 85.2484 20.296 85.1044 20.4C84.7844 20.632 84.4004 20.812 83.9524 20.94C83.5124 21.06 83.0644 21.12 82.6084 21.12Z" fill="#69B000"/>
  <path d="M88.0887 21.12C87.4247 21.12 86.9247 20.932 86.5887 20.556C86.2527 20.172 86.0847 19.612 86.0847 18.876V13.2C86.0847 12.952 86.1487 12.764 86.2767 12.636C86.4047 12.508 86.5887 12.444 86.8287 12.444C87.0687 12.444 87.2527 12.508 87.3807 12.636C87.5167 12.764 87.5847 12.952 87.5847 13.2V18.804C87.5847 19.172 87.6607 19.444 87.8127 19.62C87.9727 19.796 88.1967 19.884 88.4847 19.884C88.5487 19.884 88.6087 19.884 88.6647 19.884C88.7207 19.876 88.7767 19.868 88.8327 19.86C88.9447 19.844 89.0207 19.876 89.0607 19.956C89.1007 20.028 89.1207 20.18 89.1207 20.412C89.1207 20.612 89.0807 20.768 89.0007 20.88C88.9207 20.992 88.7887 21.06 88.6047 21.084C88.5247 21.092 88.4407 21.1 88.3527 21.108C88.2647 21.116 88.1767 21.12 88.0887 21.12Z" fill="#69B000"/>
  <path d="M90.0607 21.084C89.8207 21.084 89.6367 21.012 89.5087 20.868C89.3807 20.724 89.3167 20.524 89.3167 20.268V15.864C89.3167 15.6 89.3807 15.4 89.5087 15.264C89.6367 15.12 89.8207 15.048 90.0607 15.048C90.3007 15.048 90.4847 15.12 90.6127 15.264C90.7487 15.4 90.8167 15.6 90.8167 15.864V20.268C90.8167 20.524 90.7527 20.724 90.6247 20.868C90.4967 21.012 90.3087 21.084 90.0607 21.084ZM90.0607 13.932C89.7807 13.932 89.5607 13.864 89.4007 13.728C89.2487 13.584 89.1727 13.388 89.1727 13.14C89.1727 12.884 89.2487 12.688 89.4007 12.552C89.5607 12.416 89.7807 12.348 90.0607 12.348C90.3487 12.348 90.5687 12.416 90.7207 12.552C90.8727 12.688 90.9487 12.884 90.9487 13.14C90.9487 13.388 90.8727 13.584 90.7207 13.728C90.5687 13.864 90.3487 13.932 90.0607 13.932Z" fill="#69B000"/>
  <path d="M92.5193 21.096C92.2793 21.096 92.0953 21.032 91.9673 20.904C91.8393 20.768 91.7753 20.576 91.7753 20.328V15.792C91.7753 15.544 91.8393 15.356 91.9673 15.228C92.0953 15.1 92.2753 15.036 92.5073 15.036C92.7393 15.036 92.9193 15.1 93.0473 15.228C93.1753 15.356 93.2393 15.544 93.2393 15.792V16.608L93.1073 16.308C93.2833 15.884 93.5553 15.564 93.9233 15.348C94.2993 15.124 94.7233 15.012 95.1953 15.012C95.6673 15.012 96.0553 15.1 96.3593 15.276C96.6633 15.452 96.8913 15.72 97.0433 16.08C97.1953 16.432 97.2713 16.88 97.2713 17.424V20.328C97.2713 20.576 97.2073 20.768 97.0793 20.904C96.9513 21.032 96.7673 21.096 96.5273 21.096C96.2873 21.096 96.0993 21.032 95.9633 20.904C95.8353 20.768 95.7713 20.576 95.7713 20.328V17.496C95.7713 17.04 95.6833 16.708 95.5073 16.5C95.3393 16.292 95.0753 16.188 94.7153 16.188C94.2753 16.188 93.9233 16.328 93.6593 16.608C93.4033 16.88 93.2753 17.244 93.2753 17.7V20.328C93.2753 20.84 93.0233 21.096 92.5193 21.096Z" fill="#69B000"/>
  <path d="M98.9388 21.084C98.6988 21.084 98.5148 21.012 98.3868 20.868C98.2588 20.724 98.1948 20.524 98.1948 20.268V15.864C98.1948 15.6 98.2588 15.4 98.3868 15.264C98.5148 15.12 98.6988 15.048 98.9388 15.048C99.1788 15.048 99.3628 15.12 99.4908 15.264C99.6268 15.4 99.6948 15.6 99.6948 15.864V20.268C99.6948 20.524 99.6308 20.724 99.5028 20.868C99.3748 21.012 99.1868 21.084 98.9388 21.084ZM98.9388 13.932C98.6588 13.932 98.4388 13.864 98.2788 13.728C98.1268 13.584 98.0508 13.388 98.0508 13.14C98.0508 12.884 98.1268 12.688 98.2788 12.552C98.4388 12.416 98.6588 12.348 98.9388 12.348C99.2268 12.348 99.4468 12.416 99.5988 12.552C99.7508 12.688 99.8268 12.884 99.8268 13.14C99.8268 13.388 99.7508 13.584 99.5988 13.728C99.4468 13.864 99.2268 13.932 98.9388 13.932Z" fill="#69B000"/>
  <path d="M103.365 21.12C102.749 21.12 102.213 20.996 101.757 20.748C101.301 20.492 100.949 20.132 100.701 19.668C100.453 19.204 100.329 18.66 100.329 18.036C100.329 17.564 100.397 17.144 100.533 16.776C100.677 16.4 100.881 16.084 101.145 15.828C101.409 15.564 101.729 15.364 102.105 15.228C102.481 15.084 102.901 15.012 103.365 15.012C103.629 15.012 103.913 15.048 104.217 15.12C104.529 15.192 104.821 15.312 105.093 15.48C105.221 15.56 105.305 15.656 105.345 15.768C105.385 15.88 105.393 15.996 105.369 16.116C105.345 16.228 105.293 16.328 105.213 16.416C105.141 16.496 105.049 16.548 104.937 16.572C104.825 16.588 104.701 16.56 104.565 16.488C104.389 16.384 104.209 16.308 104.025 16.26C103.841 16.204 103.665 16.176 103.497 16.176C103.233 16.176 103.001 16.22 102.801 16.308C102.601 16.388 102.429 16.508 102.285 16.668C102.149 16.82 102.045 17.012 101.973 17.244C101.901 17.476 101.865 17.744 101.865 18.048C101.865 18.64 102.005 19.108 102.285 19.452C102.573 19.788 102.977 19.956 103.497 19.956C103.665 19.956 103.837 19.932 104.013 19.884C104.197 19.836 104.381 19.76 104.565 19.656C104.701 19.584 104.821 19.56 104.925 19.584C105.037 19.608 105.129 19.664 105.201 19.752C105.273 19.832 105.317 19.932 105.333 20.052C105.349 20.164 105.333 20.276 105.285 20.388C105.245 20.5 105.165 20.592 105.045 20.664C104.781 20.824 104.501 20.94 104.205 21.012C103.909 21.084 103.629 21.12 103.365 21.12Z" fill="#69B000"/>
</svg>