<svg xmlns="http://www.w3.org/2000/svg" width="106" height="21" viewBox="0 0 106 21" fill="none">
  <path d="M2.5 10.1783C1.8 10.1783 1.20833 9.94937 0.725 9.49147C0.241667 9.03358 0 8.47305 0 7.8099C0 7.14674 0.241667 6.58621 0.725 6.12832C1.20833 5.67042 1.8 5.44147 2.5 5.44147C3.2 5.44147 3.79167 5.67042 4.275 6.12832C4.75833 6.58621 5 7.14674 5 7.8099C5 8.47305 4.75833 9.03358 4.275 9.49147C3.79167 9.94937 3.2 10.1783 2.5 10.1783ZM7 6.38884C6.3 6.38884 5.70833 6.15989 5.225 5.702C4.74167 5.24411 4.5 4.68358 4.5 4.02042C4.5 3.35726 4.74167 2.79674 5.225 2.33884C5.70833 1.88095 6.3 1.652 7 1.652C7.7 1.652 8.29167 1.88095 8.775 2.33884C9.25833 2.79674 9.5 3.35726 9.5 4.02042C9.5 4.68358 9.25833 5.24411 8.775 5.702C8.29167 6.15989 7.7 6.38884 7 6.38884ZM13 6.38884C12.3 6.38884 11.7083 6.15989 11.225 5.702C10.7417 5.24411 10.5 4.68358 10.5 4.02042C10.5 3.35726 10.7417 2.79674 11.225 2.33884C11.7083 1.88095 12.3 1.652 13 1.652C13.7 1.652 14.2917 1.88095 14.775 2.33884C15.2583 2.79674 15.5 3.35726 15.5 4.02042C15.5 4.68358 15.2583 5.24411 14.775 5.702C14.2917 6.15989 13.7 6.38884 13 6.38884ZM17.5 10.1783C16.8 10.1783 16.2083 9.94937 15.725 9.49147C15.2417 9.03358 15 8.47305 15 7.8099C15 7.14674 15.2417 6.58621 15.725 6.12832C16.2083 5.67042 16.8 5.44147 17.5 5.44147C18.2 5.44147 18.7917 5.67042 19.275 6.12832C19.7583 6.58621 20 7.14674 20 7.8099C20 8.47305 19.7583 9.03358 19.275 9.49147C18.7917 9.94937 18.2 10.1783 17.5 10.1783ZM4.65 19.652C3.9 19.652 3.27083 19.3796 2.7625 18.8349C2.25417 18.2902 2 17.6467 2 16.9046C2 16.0836 2.29583 15.3652 2.8875 14.7494C3.47917 14.1336 4.06667 13.5257 4.65 12.9257C5.13333 12.4362 5.55 11.9033 5.9 11.327C6.25 10.7507 6.66667 10.2099 7.15 9.70463C7.51667 9.29411 7.94167 8.95463 8.425 8.68621C8.90833 8.41779 9.43333 8.28358 10 8.28358C10.5667 8.28358 11.0917 8.4099 11.575 8.66253C12.0583 8.91516 12.4833 9.24674 12.85 9.65726C13.3167 10.1625 13.7292 10.7073 14.0875 11.2915C14.4458 11.8757 14.8667 12.4204 15.35 12.9257C15.9333 13.5257 16.5208 14.1336 17.1125 14.7494C17.7042 15.3652 18 16.0836 18 16.9046C18 17.6467 17.7458 18.2902 17.2375 18.8349C16.7292 19.3796 16.1 19.652 15.35 19.652C14.45 19.652 13.5583 19.5809 12.675 19.4388C11.7917 19.2967 10.9 19.2257 10 19.2257C9.1 19.2257 8.20833 19.2967 7.325 19.4388C6.44167 19.5809 5.55 19.652 4.65 19.652Z" fill="#F8FFE5"/>
  <path d="M29.008 8.748C28.816 8.748 28.66 8.704 28.54 8.616C28.428 8.528 28.36 8.412 28.336 8.268C28.312 8.116 28.34 7.948 28.42 7.764L31.588 0.744C31.692 0.512 31.816 0.348 31.96 0.252C32.112 0.148 32.284 0.0959995 32.476 0.0959995C32.66 0.0959995 32.824 0.148 32.968 0.252C33.12 0.348 33.248 0.512 33.352 0.744L36.532 7.764C36.62 7.948 36.652 8.116 36.628 8.268C36.604 8.42 36.536 8.54 36.424 8.628C36.312 8.708 36.164 8.748 35.98 8.748C35.756 8.748 35.58 8.696 35.452 8.592C35.332 8.48 35.224 8.312 35.128 8.088L34.348 6.276L34.996 6.696H29.932L30.58 6.276L29.812 8.088C29.708 8.32 29.6 8.488 29.488 8.592C29.376 8.696 29.216 8.748 29.008 8.748ZM32.452 1.86L30.772 5.856L30.46 5.472H34.468L34.168 5.856L32.476 1.86H32.452Z" fill="#F8FFE5"/>
  <path d="M40.4937 8.772C39.9977 8.772 39.5617 8.648 39.1857 8.4C38.8177 8.152 38.5737 7.82 38.4537 7.404L38.5857 7.104V7.98C38.5857 8.228 38.5217 8.42 38.3937 8.556C38.2657 8.684 38.0857 8.748 37.8537 8.748C37.6137 8.748 37.4297 8.684 37.3017 8.556C37.1737 8.42 37.1097 8.228 37.1097 7.98V0.852C37.1097 0.604 37.1737 0.416 37.3017 0.288C37.4297 0.16 37.6137 0.0959995 37.8537 0.0959995C38.0937 0.0959995 38.2777 0.16 38.4057 0.288C38.5417 0.416 38.6097 0.604 38.6097 0.852V3.972H38.4657C38.5937 3.58 38.8417 3.264 39.2097 3.024C39.5777 2.784 40.0057 2.664 40.4937 2.664C41.0137 2.664 41.4657 2.788 41.8497 3.036C42.2337 3.284 42.5337 3.636 42.7497 4.092C42.9657 4.54 43.0737 5.08 43.0737 5.712C43.0737 6.336 42.9657 6.88 42.7497 7.344C42.5337 7.8 42.2297 8.152 41.8377 8.4C41.4537 8.648 41.0057 8.772 40.4937 8.772ZM40.0737 7.632C40.3697 7.632 40.6297 7.56 40.8537 7.416C41.0777 7.272 41.2497 7.06 41.3697 6.78C41.4977 6.492 41.5617 6.136 41.5617 5.712C41.5617 5.072 41.4257 4.596 41.1537 4.284C40.8817 3.964 40.5217 3.804 40.0737 3.804C39.7777 3.804 39.5177 3.876 39.2937 4.02C39.0697 4.156 38.8937 4.368 38.7657 4.656C38.6457 4.936 38.5857 5.288 38.5857 5.712C38.5857 6.344 38.7217 6.824 38.9937 7.152C39.2657 7.472 39.6257 7.632 40.0737 7.632Z" fill="#F8FFE5"/>
  <path d="M45.0758 10.908C44.8998 10.908 44.7558 10.86 44.6438 10.764C44.5318 10.676 44.4638 10.556 44.4398 10.404C44.4238 10.252 44.4518 10.092 44.5238 9.924L45.3398 8.112V8.736L43.1558 3.684C43.0838 3.508 43.0598 3.344 43.0838 3.192C43.1078 3.04 43.1798 2.92 43.2998 2.832C43.4278 2.736 43.5998 2.688 43.8158 2.688C43.9998 2.688 44.1478 2.732 44.2598 2.82C44.3718 2.9 44.4718 3.056 44.5598 3.288L46.1798 7.332H45.8198L47.4758 3.276C47.5638 3.052 47.6678 2.9 47.7878 2.82C47.9078 2.732 48.0678 2.688 48.2678 2.688C48.4438 2.688 48.5838 2.736 48.6878 2.832C48.7918 2.92 48.8558 3.04 48.8798 3.192C48.9038 3.336 48.8758 3.496 48.7958 3.672L45.8798 10.332C45.7758 10.556 45.6638 10.708 45.5438 10.788C45.4238 10.868 45.2678 10.908 45.0758 10.908Z" fill="#F8FFE5"/>
  <path d="M51.335 8.772C50.991 8.772 50.627 8.736 50.243 8.664C49.859 8.592 49.515 8.468 49.211 8.292C49.083 8.212 48.991 8.12 48.935 8.016C48.887 7.904 48.867 7.796 48.875 7.692C48.891 7.58 48.931 7.484 48.995 7.404C49.067 7.324 49.155 7.272 49.259 7.248C49.371 7.224 49.491 7.244 49.619 7.308C49.939 7.46 50.239 7.568 50.519 7.632C50.799 7.688 51.075 7.716 51.347 7.716C51.731 7.716 52.015 7.652 52.199 7.524C52.391 7.388 52.487 7.212 52.487 6.996C52.487 6.812 52.423 6.672 52.295 6.576C52.175 6.472 51.991 6.396 51.743 6.348L50.543 6.12C50.047 6.024 49.667 5.844 49.403 5.58C49.147 5.308 49.019 4.96 49.019 4.536C49.019 4.152 49.123 3.82 49.331 3.54C49.547 3.26 49.843 3.044 50.219 2.892C50.595 2.74 51.027 2.664 51.515 2.664C51.867 2.664 52.195 2.704 52.499 2.784C52.811 2.856 53.111 2.972 53.399 3.132C53.519 3.196 53.599 3.28 53.639 3.384C53.687 3.488 53.699 3.596 53.675 3.708C53.651 3.812 53.603 3.908 53.531 3.996C53.459 4.076 53.367 4.128 53.255 4.152C53.151 4.168 53.031 4.144 52.895 4.08C52.647 3.952 52.407 3.86 52.175 3.804C51.951 3.748 51.735 3.72 51.527 3.72C51.135 3.72 50.843 3.788 50.651 3.924C50.467 4.06 50.375 4.24 50.375 4.464C50.375 4.632 50.431 4.772 50.543 4.884C50.655 4.996 50.827 5.072 51.059 5.112L52.259 5.34C52.779 5.436 53.171 5.612 53.435 5.868C53.707 6.124 53.843 6.468 53.843 6.9C53.843 7.484 53.615 7.944 53.159 8.28C52.703 8.608 52.095 8.772 51.335 8.772Z" fill="#F8FFE5"/>
  <path d="M57.3322 8.748C57.1402 8.748 56.9842 8.704 56.8642 8.616C56.7522 8.528 56.6842 8.412 56.6602 8.268C56.6362 8.116 56.6642 7.948 56.7442 7.764L59.9122 0.744C60.0162 0.512 60.1402 0.348 60.2842 0.252C60.4362 0.148 60.6082 0.0959995 60.8002 0.0959995C60.9842 0.0959995 61.1482 0.148 61.2922 0.252C61.4442 0.348 61.5722 0.512 61.6762 0.744L64.8562 7.764C64.9442 7.948 64.9762 8.116 64.9522 8.268C64.9282 8.42 64.8602 8.54 64.7482 8.628C64.6362 8.708 64.4882 8.748 64.3042 8.748C64.0802 8.748 63.9042 8.696 63.7762 8.592C63.6562 8.48 63.5482 8.312 63.4522 8.088L62.6722 6.276L63.3202 6.696H58.2562L58.9042 6.276L58.1362 8.088C58.0322 8.32 57.9242 8.488 57.8122 8.592C57.7002 8.696 57.5402 8.748 57.3322 8.748ZM60.7762 1.86L59.0962 5.856L58.7842 5.472H62.7922L62.4922 5.856L60.8002 1.86H60.7762Z" fill="#F8FFE5"/>
  <path d="M68.1113 10.932C67.6793 10.932 67.2593 10.892 66.8513 10.812C66.4513 10.732 66.0873 10.608 65.7593 10.44C65.6073 10.36 65.5033 10.264 65.4473 10.152C65.3993 10.04 65.3833 9.924 65.3993 9.804C65.4233 9.692 65.4713 9.592 65.5433 9.504C65.6233 9.416 65.7193 9.356 65.8313 9.324C65.9433 9.292 66.0593 9.308 66.1793 9.372C66.5313 9.548 66.8633 9.66 67.1753 9.708C67.4953 9.764 67.7673 9.792 67.9913 9.792C68.5273 9.792 68.9273 9.66 69.1913 9.396C69.4633 9.14 69.5993 8.756 69.5993 8.244V7.164H69.7073C69.5873 7.572 69.3353 7.9 68.9513 8.148C68.5753 8.388 68.1473 8.508 67.6673 8.508C67.1393 8.508 66.6793 8.388 66.2873 8.148C65.8953 7.9 65.5913 7.556 65.3753 7.116C65.1593 6.676 65.0513 6.164 65.0513 5.58C65.0513 5.14 65.1113 4.744 65.2313 4.392C65.3593 4.032 65.5353 3.724 65.7593 3.468C65.9913 3.212 66.2673 3.016 66.5873 2.88C66.9153 2.736 67.2753 2.664 67.6673 2.664C68.1633 2.664 68.5953 2.788 68.9633 3.036C69.3393 3.276 69.5833 3.596 69.6953 3.996L69.5753 4.296V3.444C69.5753 3.196 69.6393 3.008 69.7673 2.88C69.9033 2.752 70.0873 2.688 70.3193 2.688C70.5593 2.688 70.7433 2.752 70.8713 2.88C70.9993 3.008 71.0633 3.196 71.0633 3.444V8.064C71.0633 9.016 70.8113 9.732 70.3073 10.212C69.8033 10.692 69.0713 10.932 68.1113 10.932ZM68.0753 7.368C68.3873 7.368 68.6553 7.296 68.8793 7.152C69.1033 7.008 69.2753 6.804 69.3953 6.54C69.5233 6.268 69.5873 5.948 69.5873 5.58C69.5873 5.028 69.4513 4.596 69.1793 4.284C68.9073 3.964 68.5393 3.804 68.0753 3.804C67.7633 3.804 67.4953 3.876 67.2713 4.02C67.0473 4.164 66.8713 4.368 66.7433 4.632C66.6233 4.896 66.5633 5.212 66.5633 5.58C66.5633 6.132 66.6993 6.568 66.9713 6.888C67.2433 7.208 67.6113 7.368 68.0753 7.368Z" fill="#F8FFE5"/>
  <path d="M72.7855 8.748C72.5375 8.748 72.3455 8.684 72.2095 8.556C72.0815 8.42 72.0175 8.228 72.0175 7.98V3.444C72.0175 3.196 72.0815 3.008 72.2095 2.88C72.3375 2.752 72.5175 2.688 72.7495 2.688C72.9815 2.688 73.1615 2.752 73.2895 2.88C73.4175 3.008 73.4815 3.196 73.4815 3.444V4.2H73.3615C73.4735 3.72 73.6935 3.356 74.0215 3.108C74.3495 2.86 74.7855 2.712 75.3295 2.664C75.4975 2.648 75.6295 2.692 75.7255 2.796C75.8295 2.892 75.8895 3.044 75.9055 3.252C75.9215 3.452 75.8735 3.616 75.7615 3.744C75.6575 3.864 75.4975 3.936 75.2815 3.96L75.0175 3.984C74.5295 4.032 74.1615 4.184 73.9135 4.44C73.6655 4.688 73.5415 5.04 73.5415 5.496V7.98C73.5415 8.228 73.4775 8.42 73.3495 8.556C73.2215 8.684 73.0335 8.748 72.7855 8.748Z" fill="#F8FFE5"/>
  <path d="M76.8607 8.736C76.6207 8.736 76.4367 8.664 76.3087 8.52C76.1807 8.376 76.1167 8.176 76.1167 7.92V3.516C76.1167 3.252 76.1807 3.052 76.3087 2.916C76.4367 2.772 76.6207 2.7 76.8607 2.7C77.1007 2.7 77.2847 2.772 77.4127 2.916C77.5487 3.052 77.6167 3.252 77.6167 3.516V7.92C77.6167 8.176 77.5527 8.376 77.4247 8.52C77.2967 8.664 77.1087 8.736 76.8607 8.736ZM76.8607 1.584C76.5807 1.584 76.3607 1.516 76.2007 1.38C76.0487 1.236 75.9727 1.04 75.9727 0.792C75.9727 0.536 76.0487 0.34 76.2007 0.204C76.3607 0.0679998 76.5807 0 76.8607 0C77.1487 0 77.3687 0.0679998 77.5207 0.204C77.6727 0.34 77.7487 0.536 77.7487 0.792C77.7487 1.04 77.6727 1.236 77.5207 1.38C77.3687 1.516 77.1487 1.584 76.8607 1.584Z" fill="#F8FFE5"/>
  <path d="M80.9513 8.748C80.7513 8.748 80.5753 8.696 80.4233 8.592C80.2793 8.488 80.1593 8.328 80.0633 8.112L78.1553 3.684C78.0833 3.508 78.0553 3.344 78.0713 3.192C78.0953 3.04 78.1673 2.92 78.2873 2.832C78.4153 2.736 78.5873 2.688 78.8033 2.688C78.9873 2.688 79.1353 2.732 79.2473 2.82C79.3593 2.9 79.4593 3.056 79.5473 3.288L81.1673 7.332H80.8073L82.4753 3.276C82.5633 3.052 82.6633 2.9 82.7753 2.82C82.8953 2.732 83.0553 2.688 83.2553 2.688C83.4313 2.688 83.5713 2.736 83.6753 2.832C83.7793 2.92 83.8433 3.04 83.8673 3.192C83.8913 3.336 83.8633 3.496 83.7833 3.672L81.8393 8.112C81.7513 8.328 81.6313 8.488 81.4793 8.592C81.3353 8.696 81.1593 8.748 80.9513 8.748Z" fill="#F8FFE5"/>
  <path d="M87.0782 8.772C86.4142 8.772 85.8423 8.648 85.3623 8.4C84.8823 8.152 84.5102 7.8 84.2462 7.344C83.9902 6.888 83.8623 6.348 83.8623 5.724C83.8623 5.116 83.9863 4.584 84.2343 4.128C84.4903 3.672 84.8383 3.316 85.2783 3.06C85.7263 2.796 86.2343 2.664 86.8023 2.664C87.2183 2.664 87.5903 2.732 87.9183 2.868C88.2543 3.004 88.5382 3.2 88.7702 3.456C89.0102 3.712 89.1902 4.024 89.3102 4.392C89.4382 4.752 89.5023 5.16 89.5023 5.616C89.5023 5.76 89.4503 5.872 89.3463 5.952C89.2503 6.024 89.1102 6.06 88.9262 6.06H85.0742V5.196H88.4463L88.2542 5.376C88.2542 5.008 88.1983 4.7 88.0863 4.452C87.9823 4.204 87.8262 4.016 87.6182 3.888C87.4182 3.752 87.1663 3.684 86.8623 3.684C86.5263 3.684 86.2383 3.764 85.9983 3.924C85.7663 4.076 85.5863 4.296 85.4583 4.584C85.3383 4.864 85.2783 5.2 85.2783 5.592V5.676C85.2783 6.332 85.4303 6.824 85.7343 7.152C86.0463 7.472 86.5022 7.632 87.1022 7.632C87.3102 7.632 87.5422 7.608 87.7982 7.56C88.0622 7.504 88.3103 7.412 88.5423 7.284C88.7103 7.188 88.8583 7.148 88.9863 7.164C89.1143 7.172 89.2142 7.216 89.2862 7.296C89.3662 7.376 89.4143 7.476 89.4303 7.596C89.4463 7.708 89.4223 7.824 89.3583 7.944C89.3023 8.064 89.2023 8.168 89.0583 8.256C88.7783 8.432 88.4543 8.564 88.0863 8.652C87.7263 8.732 87.3902 8.772 87.0782 8.772Z" fill="#F8FFE5"/>
  <path d="M92.7547 8.772C92.2347 8.772 91.7987 8.684 91.4467 8.508C91.1027 8.332 90.8467 8.076 90.6787 7.74C90.5107 7.396 90.4267 6.972 90.4267 6.468V3.912H89.8027C89.6107 3.912 89.4627 3.864 89.3587 3.768C89.2547 3.664 89.2027 3.524 89.2027 3.348C89.2027 3.164 89.2547 3.024 89.3587 2.928C89.4627 2.832 89.6107 2.784 89.8027 2.784H90.4267V1.692C90.4267 1.444 90.4907 1.256 90.6187 1.128C90.7547 1 90.9427 0.936 91.1827 0.936C91.4227 0.936 91.6067 1 91.7347 1.128C91.8627 1.256 91.9267 1.444 91.9267 1.692V2.784H93.1987C93.3907 2.784 93.5387 2.832 93.6427 2.928C93.7467 3.024 93.7987 3.164 93.7987 3.348C93.7987 3.524 93.7467 3.664 93.6427 3.768C93.5387 3.864 93.3907 3.912 93.1987 3.912H91.9267V6.384C91.9267 6.768 92.0107 7.056 92.1787 7.248C92.3467 7.44 92.6187 7.536 92.9947 7.536C93.1307 7.536 93.2507 7.524 93.3547 7.5C93.4587 7.476 93.5507 7.46 93.6307 7.452C93.7267 7.444 93.8067 7.476 93.8707 7.548C93.9347 7.612 93.9667 7.748 93.9667 7.956C93.9667 8.116 93.9387 8.26 93.8827 8.388C93.8347 8.508 93.7427 8.592 93.6067 8.64C93.5027 8.672 93.3667 8.7 93.1987 8.724C93.0307 8.756 92.8827 8.772 92.7547 8.772Z" fill="#F8FFE5"/>
  <path d="M31.612 20.772C31.012 20.772 30.492 20.676 30.052 20.484C29.612 20.292 29.272 20.028 29.032 19.692C28.8 19.348 28.684 18.948 28.684 18.492C28.684 18.22 28.72 17.968 28.792 17.736C28.872 17.496 28.984 17.276 29.128 17.076C29.28 16.868 29.46 16.676 29.668 16.5C29.884 16.316 30.128 16.144 30.4 15.984L30.808 15.744L30.592 16.068C30.24 15.716 29.984 15.384 29.824 15.072C29.672 14.752 29.596 14.424 29.596 14.088C29.596 13.688 29.692 13.336 29.884 13.032C30.076 12.728 30.348 12.492 30.7 12.324C31.052 12.156 31.464 12.072 31.936 12.072C32.592 12.072 33.112 12.24 33.496 12.576C33.88 12.904 34.072 13.352 34.072 13.92C34.072 14.224 34.012 14.512 33.892 14.784C33.772 15.056 33.58 15.316 33.316 15.564C33.052 15.812 32.7 16.056 32.26 16.296L32.272 15.936L34.312 18.108H33.988C34.092 17.932 34.184 17.74 34.264 17.532C34.344 17.316 34.412 17.088 34.468 16.848C34.532 16.6 34.58 16.344 34.612 16.08C34.644 15.88 34.712 15.732 34.816 15.636C34.92 15.532 35.068 15.48 35.26 15.48C35.468 15.48 35.624 15.54 35.728 15.66C35.832 15.772 35.872 15.936 35.848 16.152C35.808 16.528 35.74 16.888 35.644 17.232C35.556 17.568 35.444 17.884 35.308 18.18C35.172 18.468 35.02 18.736 34.852 18.984L34.84 18.612L35.98 19.764C36.132 19.916 36.208 20.068 36.208 20.22C36.208 20.372 36.148 20.5 36.028 20.604C35.916 20.7 35.76 20.748 35.56 20.748C35.384 20.748 35.24 20.716 35.128 20.652C35.016 20.58 34.892 20.476 34.756 20.34L34.012 19.56H34.36C34.008 19.936 33.592 20.232 33.112 20.448C32.64 20.664 32.14 20.772 31.612 20.772ZM31.696 19.584C32.08 19.584 32.42 19.512 32.716 19.368C33.02 19.216 33.296 18.992 33.544 18.696L33.508 19.08L31.036 16.524L31.66 16.584L31.312 16.788C31.04 16.948 30.82 17.108 30.652 17.268C30.484 17.42 30.36 17.588 30.28 17.772C30.208 17.948 30.172 18.148 30.172 18.372C30.172 18.748 30.304 19.044 30.568 19.26C30.832 19.476 31.208 19.584 31.696 19.584ZM31.936 13.14C31.648 13.14 31.416 13.224 31.24 13.392C31.064 13.552 30.976 13.772 30.976 14.052C30.976 14.204 31 14.348 31.048 14.484C31.096 14.612 31.18 14.756 31.3 14.916C31.42 15.068 31.584 15.256 31.792 15.48L31.456 15.456C31.792 15.264 32.056 15.092 32.248 14.94C32.448 14.788 32.592 14.636 32.68 14.484C32.768 14.332 32.812 14.164 32.812 13.98C32.812 13.708 32.732 13.5 32.572 13.356C32.412 13.212 32.2 13.14 31.936 13.14Z" fill="#F8FFE5"/>
  <path d="M39.7728 20.748C39.5808 20.748 39.4248 20.704 39.3048 20.616C39.1928 20.528 39.1248 20.412 39.1008 20.268C39.0768 20.116 39.1048 19.948 39.1848 19.764L42.3528 12.744C42.4568 12.512 42.5808 12.348 42.7248 12.252C42.8768 12.148 43.0488 12.096 43.2408 12.096C43.4248 12.096 43.5888 12.148 43.7328 12.252C43.8848 12.348 44.0128 12.512 44.1168 12.744L47.2968 19.764C47.3848 19.948 47.4168 20.116 47.3928 20.268C47.3688 20.42 47.3008 20.54 47.1888 20.628C47.0768 20.708 46.9288 20.748 46.7448 20.748C46.5208 20.748 46.3448 20.696 46.2168 20.592C46.0968 20.48 45.9888 20.312 45.8928 20.088L45.1128 18.276L45.7608 18.696H40.6968L41.3448 18.276L40.5768 20.088C40.4728 20.32 40.3648 20.488 40.2528 20.592C40.1408 20.696 39.9808 20.748 39.7728 20.748ZM43.2168 13.86L41.5368 17.856L41.2248 17.472H45.2328L44.9328 17.856L43.2408 13.86H43.2168Z" fill="#F8FFE5"/>
  <path d="M48.6185 20.748C48.3785 20.748 48.1945 20.684 48.0665 20.556C47.9385 20.42 47.8745 20.228 47.8745 19.98V15.444C47.8745 15.196 47.9385 15.008 48.0665 14.88C48.1945 14.752 48.3745 14.688 48.6065 14.688C48.8385 14.688 49.0185 14.752 49.1465 14.88C49.2745 15.008 49.3385 15.196 49.3385 15.444V16.26L49.2065 15.96C49.3825 15.536 49.6545 15.216 50.0225 15C50.3985 14.776 50.8225 14.664 51.2945 14.664C51.7665 14.664 52.1545 14.752 52.4585 14.928C52.7625 15.104 52.9905 15.372 53.1425 15.732C53.2945 16.084 53.3705 16.532 53.3705 17.076V19.98C53.3705 20.228 53.3065 20.42 53.1785 20.556C53.0505 20.684 52.8665 20.748 52.6265 20.748C52.3865 20.748 52.1985 20.684 52.0625 20.556C51.9345 20.42 51.8705 20.228 51.8705 19.98V17.148C51.8705 16.692 51.7825 16.36 51.6065 16.152C51.4385 15.944 51.1745 15.84 50.8145 15.84C50.3745 15.84 50.0225 15.98 49.7585 16.26C49.5025 16.532 49.3745 16.896 49.3745 17.352V19.98C49.3745 20.492 49.1225 20.748 48.6185 20.748Z" fill="#F8FFE5"/>
  <path d="M55.0381 20.736C54.7981 20.736 54.6141 20.664 54.4861 20.52C54.3581 20.376 54.2941 20.176 54.2941 19.92V15.516C54.2941 15.252 54.3581 15.052 54.4861 14.916C54.6141 14.772 54.7981 14.7 55.0381 14.7C55.2781 14.7 55.4621 14.772 55.5901 14.916C55.7261 15.052 55.7941 15.252 55.7941 15.516V19.92C55.7941 20.176 55.7301 20.376 55.6021 20.52C55.4741 20.664 55.2861 20.736 55.0381 20.736ZM55.0381 13.584C54.7581 13.584 54.5381 13.516 54.3781 13.38C54.2261 13.236 54.1501 13.04 54.1501 12.792C54.1501 12.536 54.2261 12.34 54.3781 12.204C54.5381 12.068 54.7581 12 55.0381 12C55.3261 12 55.5461 12.068 55.6981 12.204C55.8501 12.34 55.9261 12.536 55.9261 12.792C55.9261 13.04 55.8501 13.236 55.6981 13.38C55.5461 13.516 55.3261 13.584 55.0381 13.584Z" fill="#F8FFE5"/>
  <path d="M57.5207 20.748C57.2807 20.748 57.0967 20.684 56.9687 20.556C56.8407 20.42 56.7767 20.228 56.7767 19.98V15.444C56.7767 15.196 56.8407 15.008 56.9687 14.88C57.0967 14.752 57.2767 14.688 57.5087 14.688C57.7407 14.688 57.9207 14.752 58.0487 14.88C58.1767 15.008 58.2407 15.196 58.2407 15.444V16.32L58.1087 15.96C58.2687 15.56 58.5167 15.244 58.8527 15.012C59.1887 14.78 59.5887 14.664 60.0527 14.664C60.5247 14.664 60.9127 14.776 61.2167 15C61.5207 15.224 61.7327 15.568 61.8527 16.032H61.6847C61.8447 15.608 62.1087 15.276 62.4767 15.036C62.8447 14.788 63.2687 14.664 63.7487 14.664C64.1967 14.664 64.5647 14.752 64.8527 14.928C65.1487 15.104 65.3687 15.372 65.5127 15.732C65.6567 16.084 65.7287 16.532 65.7287 17.076V19.98C65.7287 20.228 65.6607 20.42 65.5247 20.556C65.3967 20.684 65.2127 20.748 64.9727 20.748C64.7327 20.748 64.5487 20.684 64.4207 20.556C64.2927 20.42 64.2287 20.228 64.2287 19.98V17.136C64.2287 16.688 64.1527 16.36 64.0007 16.152C63.8567 15.944 63.6087 15.84 63.2567 15.84C62.8647 15.84 62.5567 15.98 62.3327 16.26C62.1087 16.532 61.9967 16.912 61.9967 17.4V19.98C61.9967 20.228 61.9327 20.42 61.8047 20.556C61.6767 20.684 61.4927 20.748 61.2527 20.748C61.0127 20.748 60.8247 20.684 60.6887 20.556C60.5607 20.42 60.4967 20.228 60.4967 19.98V17.136C60.4967 16.688 60.4207 16.36 60.2687 16.152C60.1247 15.944 59.8807 15.84 59.5367 15.84C59.1447 15.84 58.8367 15.98 58.6127 16.26C58.3887 16.532 58.2767 16.912 58.2767 17.4V19.98C58.2767 20.492 58.0247 20.748 57.5207 20.748Z" fill="#F8FFE5"/>
  <path d="M68.6081 20.772C68.1841 20.772 67.8041 20.692 67.4681 20.532C67.1401 20.364 66.8801 20.14 66.6881 19.86C66.5041 19.58 66.4121 19.264 66.4121 18.912C66.4121 18.48 66.5241 18.14 66.7481 17.892C66.9721 17.636 67.3361 17.452 67.8401 17.34C68.3441 17.228 69.0201 17.172 69.8681 17.172H70.4681V18.036H69.8801C69.3841 18.036 68.9881 18.06 68.6921 18.108C68.3961 18.156 68.1841 18.24 68.0561 18.36C67.9361 18.472 67.8761 18.632 67.8761 18.84C67.8761 19.104 67.9681 19.32 68.1521 19.488C68.3361 19.656 68.5921 19.74 68.9201 19.74C69.1841 19.74 69.4161 19.68 69.6161 19.56C69.8241 19.432 69.9881 19.26 70.1081 19.044C70.2281 18.828 70.2881 18.58 70.2881 18.3V16.92C70.2881 16.52 70.2001 16.232 70.0241 16.056C69.8481 15.88 69.5521 15.792 69.1361 15.792C68.9041 15.792 68.6521 15.82 68.3801 15.876C68.1161 15.932 67.8361 16.028 67.5401 16.164C67.3881 16.236 67.2521 16.256 67.1321 16.224C67.0201 16.192 66.9321 16.128 66.8681 16.032C66.8041 15.928 66.7721 15.816 66.7721 15.696C66.7721 15.576 66.8041 15.46 66.8681 15.348C66.9321 15.228 67.0401 15.14 67.1921 15.084C67.5601 14.932 67.9121 14.824 68.2481 14.76C68.5921 14.696 68.9041 14.664 69.1841 14.664C69.7601 14.664 70.2321 14.752 70.6001 14.928C70.9761 15.104 71.2561 15.372 71.4401 15.732C71.6241 16.084 71.7161 16.54 71.7161 17.1V19.98C71.7161 20.228 71.6561 20.42 71.5361 20.556C71.4161 20.684 71.2441 20.748 71.0201 20.748C70.7961 20.748 70.6201 20.684 70.4921 20.556C70.3721 20.42 70.3121 20.228 70.3121 19.98V19.404H70.4081C70.3521 19.684 70.2401 19.928 70.0721 20.136C69.9121 20.336 69.7081 20.492 69.4601 20.604C69.2121 20.716 68.9281 20.772 68.6081 20.772Z" fill="#F8FFE5"/>
  <path d="M74.6426 20.772C73.9786 20.772 73.4786 20.584 73.1426 20.208C72.8066 19.824 72.6386 19.264 72.6386 18.528V12.852C72.6386 12.604 72.7026 12.416 72.8306 12.288C72.9586 12.16 73.1426 12.096 73.3826 12.096C73.6226 12.096 73.8066 12.16 73.9346 12.288C74.0706 12.416 74.1386 12.604 74.1386 12.852V18.456C74.1386 18.824 74.2146 19.096 74.3666 19.272C74.5266 19.448 74.7506 19.536 75.0386 19.536C75.1026 19.536 75.1626 19.536 75.2186 19.536C75.2746 19.528 75.3306 19.52 75.3866 19.512C75.4986 19.496 75.5746 19.528 75.6146 19.608C75.6546 19.68 75.6746 19.832 75.6746 20.064C75.6746 20.264 75.6346 20.42 75.5546 20.532C75.4746 20.644 75.3426 20.712 75.1586 20.736C75.0786 20.744 74.9946 20.752 74.9066 20.76C74.8186 20.768 74.7306 20.772 74.6426 20.772Z" fill="#F8FFE5"/>
  <path d="M82.6084 20.772C81.7284 20.772 80.9724 20.596 80.3404 20.244C79.7164 19.884 79.2364 19.38 78.9004 18.732C78.5644 18.076 78.3964 17.304 78.3964 16.416C78.3964 15.752 78.4924 15.156 78.6844 14.628C78.8764 14.092 79.1524 13.636 79.5124 13.26C79.8724 12.876 80.3124 12.584 80.8324 12.384C81.3604 12.176 81.9524 12.072 82.6084 12.072C83.0484 12.072 83.4804 12.128 83.9044 12.24C84.3284 12.352 84.7004 12.512 85.0204 12.72C85.1884 12.824 85.3004 12.952 85.3564 13.104C85.4124 13.248 85.4244 13.392 85.3924 13.536C85.3604 13.672 85.2924 13.788 85.1884 13.884C85.0924 13.98 84.9684 14.036 84.8164 14.052C84.6724 14.06 84.5124 14.008 84.3364 13.896C84.0884 13.736 83.8204 13.62 83.5324 13.548C83.2444 13.476 82.9524 13.44 82.6564 13.44C82.0884 13.44 81.6084 13.556 81.2164 13.788C80.8244 14.02 80.5284 14.356 80.3284 14.796C80.1284 15.236 80.0284 15.776 80.0284 16.416C80.0284 17.048 80.1284 17.588 80.3284 18.036C80.5284 18.484 80.8244 18.824 81.2164 19.056C81.6084 19.288 82.0884 19.404 82.6564 19.404C82.9604 19.404 83.2604 19.368 83.5564 19.296C83.8524 19.216 84.1324 19.096 84.3964 18.936C84.5724 18.832 84.7284 18.788 84.8644 18.804C85.0084 18.812 85.1284 18.86 85.2244 18.948C85.3204 19.036 85.3844 19.148 85.4164 19.284C85.4484 19.412 85.4404 19.548 85.3924 19.692C85.3444 19.828 85.2484 19.948 85.1044 20.052C84.7844 20.284 84.4004 20.464 83.9524 20.592C83.5124 20.712 83.0644 20.772 82.6084 20.772Z" fill="#F8FFE5"/>
  <path d="M88.0887 20.772C87.4247 20.772 86.9247 20.584 86.5887 20.208C86.2527 19.824 86.0847 19.264 86.0847 18.528V12.852C86.0847 12.604 86.1487 12.416 86.2767 12.288C86.4047 12.16 86.5887 12.096 86.8287 12.096C87.0687 12.096 87.2527 12.16 87.3807 12.288C87.5167 12.416 87.5847 12.604 87.5847 12.852V18.456C87.5847 18.824 87.6607 19.096 87.8127 19.272C87.9727 19.448 88.1967 19.536 88.4847 19.536C88.5487 19.536 88.6087 19.536 88.6647 19.536C88.7207 19.528 88.7767 19.52 88.8327 19.512C88.9447 19.496 89.0207 19.528 89.0607 19.608C89.1007 19.68 89.1207 19.832 89.1207 20.064C89.1207 20.264 89.0807 20.42 89.0007 20.532C88.9207 20.644 88.7887 20.712 88.6047 20.736C88.5247 20.744 88.4407 20.752 88.3527 20.76C88.2647 20.768 88.1767 20.772 88.0887 20.772Z" fill="#F8FFE5"/>
  <path d="M90.0607 20.736C89.8207 20.736 89.6367 20.664 89.5087 20.52C89.3807 20.376 89.3167 20.176 89.3167 19.92V15.516C89.3167 15.252 89.3807 15.052 89.5087 14.916C89.6367 14.772 89.8207 14.7 90.0607 14.7C90.3007 14.7 90.4847 14.772 90.6127 14.916C90.7487 15.052 90.8167 15.252 90.8167 15.516V19.92C90.8167 20.176 90.7527 20.376 90.6247 20.52C90.4967 20.664 90.3087 20.736 90.0607 20.736ZM90.0607 13.584C89.7807 13.584 89.5607 13.516 89.4007 13.38C89.2487 13.236 89.1727 13.04 89.1727 12.792C89.1727 12.536 89.2487 12.34 89.4007 12.204C89.5607 12.068 89.7807 12 90.0607 12C90.3487 12 90.5687 12.068 90.7207 12.204C90.8727 12.34 90.9487 12.536 90.9487 12.792C90.9487 13.04 90.8727 13.236 90.7207 13.38C90.5687 13.516 90.3487 13.584 90.0607 13.584Z" fill="#F8FFE5"/>
  <path d="M92.5193 20.748C92.2793 20.748 92.0953 20.684 91.9673 20.556C91.8393 20.42 91.7753 20.228 91.7753 19.98V15.444C91.7753 15.196 91.8393 15.008 91.9673 14.88C92.0953 14.752 92.2753 14.688 92.5073 14.688C92.7393 14.688 92.9193 14.752 93.0473 14.88C93.1753 15.008 93.2393 15.196 93.2393 15.444V16.26L93.1073 15.96C93.2833 15.536 93.5553 15.216 93.9233 15C94.2993 14.776 94.7233 14.664 95.1953 14.664C95.6673 14.664 96.0553 14.752 96.3593 14.928C96.6633 15.104 96.8913 15.372 97.0433 15.732C97.1953 16.084 97.2713 16.532 97.2713 17.076V19.98C97.2713 20.228 97.2073 20.42 97.0793 20.556C96.9513 20.684 96.7673 20.748 96.5273 20.748C96.2873 20.748 96.0993 20.684 95.9633 20.556C95.8353 20.42 95.7713 20.228 95.7713 19.98V17.148C95.7713 16.692 95.6833 16.36 95.5073 16.152C95.3393 15.944 95.0753 15.84 94.7153 15.84C94.2753 15.84 93.9233 15.98 93.6593 16.26C93.4033 16.532 93.2753 16.896 93.2753 17.352V19.98C93.2753 20.492 93.0233 20.748 92.5193 20.748Z" fill="#F8FFE5"/>
  <path d="M98.9388 20.736C98.6988 20.736 98.5148 20.664 98.3868 20.52C98.2588 20.376 98.1948 20.176 98.1948 19.92V15.516C98.1948 15.252 98.2588 15.052 98.3868 14.916C98.5148 14.772 98.6988 14.7 98.9388 14.7C99.1788 14.7 99.3628 14.772 99.4908 14.916C99.6268 15.052 99.6948 15.252 99.6948 15.516V19.92C99.6948 20.176 99.6308 20.376 99.5028 20.52C99.3748 20.664 99.1868 20.736 98.9388 20.736ZM98.9388 13.584C98.6588 13.584 98.4388 13.516 98.2788 13.38C98.1268 13.236 98.0508 13.04 98.0508 12.792C98.0508 12.536 98.1268 12.34 98.2788 12.204C98.4388 12.068 98.6588 12 98.9388 12C99.2268 12 99.4468 12.068 99.5988 12.204C99.7508 12.34 99.8268 12.536 99.8268 12.792C99.8268 13.04 99.7508 13.236 99.5988 13.38C99.4468 13.516 99.2268 13.584 98.9388 13.584Z" fill="#F8FFE5"/>
  <path d="M103.365 20.772C102.749 20.772 102.213 20.648 101.757 20.4C101.301 20.144 100.949 19.784 100.701 19.32C100.453 18.856 100.329 18.312 100.329 17.688C100.329 17.216 100.397 16.796 100.533 16.428C100.677 16.052 100.881 15.736 101.145 15.48C101.409 15.216 101.729 15.016 102.105 14.88C102.481 14.736 102.901 14.664 103.365 14.664C103.629 14.664 103.913 14.7 104.217 14.772C104.529 14.844 104.821 14.964 105.093 15.132C105.221 15.212 105.305 15.308 105.345 15.42C105.385 15.532 105.393 15.648 105.369 15.768C105.345 15.88 105.293 15.98 105.213 16.068C105.141 16.148 105.049 16.2 104.937 16.224C104.825 16.24 104.701 16.212 104.565 16.14C104.389 16.036 104.209 15.96 104.025 15.912C103.841 15.856 103.665 15.828 103.497 15.828C103.233 15.828 103.001 15.872 102.801 15.96C102.601 16.04 102.429 16.16 102.285 16.32C102.149 16.472 102.045 16.664 101.973 16.896C101.901 17.128 101.865 17.396 101.865 17.7C101.865 18.292 102.005 18.76 102.285 19.104C102.573 19.44 102.977 19.608 103.497 19.608C103.665 19.608 103.837 19.584 104.013 19.536C104.197 19.488 104.381 19.412 104.565 19.308C104.701 19.236 104.821 19.212 104.925 19.236C105.037 19.26 105.129 19.316 105.201 19.404C105.273 19.484 105.317 19.584 105.333 19.704C105.349 19.816 105.333 19.928 105.285 20.04C105.245 20.152 105.165 20.244 105.045 20.316C104.781 20.476 104.501 20.592 104.205 20.664C103.909 20.736 103.629 20.772 103.365 20.772Z" fill="#F8FFE5"/>
</svg>